<svg width="24" height="24" viewBox="0 0 24 24" fill="none" xmlns="http://www.w3.org/2000/svg">
    <path d="M17.94 17.94C16.19 19.24 14.18 20 12 20C5 20 1 12 1 12C2.21 9.89 3.84 8.15 5.73 6.88M10.34 4.54C10.88 4.19 11.43 4 12 4C19 4 23 12 23 12C22.24 13.3 21.18 14.83 19.89 16.11M1 1L23 23" stroke="#b0a898" stroke-width="2.5" stroke-linecap="round" stroke-linejoin="round"/>
    <path d="M9.88 9.88C9.35 10.41 9 11.17 9 12C9 13.66 10.34 15 12 15C12.83 15 13.59 14.65 14.12 14.12" stroke="#b0a898" stroke-width="2.5" stroke-linecap="round" stroke-linejoin="round"/>
</svg>
